<svg width="40" height="40" viewBox="0 0 40 40" fill="none" xmlns="http://www.w3.org/2000/svg">
<g opacity="0.4">
<g filter="url(#filter0_b_384_397)">
<path d="M8.25792 20.586L16.6564 22.922C16.7566 22.9509 16.8479 23.0048 16.9217 23.0786C16.9954 23.1523 17.0493 23.2436 17.0782 23.3439L19.4142 31.7423C19.4505 31.8696 19.5274 31.9816 19.6331 32.0614C19.7389 32.1411 19.8677 32.1843 20.0001 32.1843C20.1325 32.1843 20.2614 32.1411 20.3671 32.0614C20.4728 31.9816 20.5497 31.8696 20.586 31.7423L22.922 23.3439C22.9509 23.2436 23.0048 23.1523 23.0786 23.0786C23.1523 23.0048 23.2436 22.9509 23.3439 22.922L31.7423 20.586C31.8696 20.5497 31.9816 20.4728 32.0614 20.3671C32.1411 20.2614 32.1843 20.1325 32.1843 20.0001C32.1843 19.8677 32.1411 19.7389 32.0614 19.6331C31.9816 19.5274 31.8696 19.4505 31.7423 19.4142L23.3439 17.0782C23.2436 17.0493 23.1523 16.9954 23.0786 16.9217C23.0048 16.8479 22.9509 16.7566 22.922 16.6564L20.586 8.25792C20.5497 8.13058 20.4728 8.01856 20.3671 7.93881C20.2614 7.85906 20.1325 7.81592 20.0001 7.81592C19.8677 7.81592 19.7389 7.85906 19.6331 7.93881C19.5274 8.01856 19.4505 8.13058 19.4142 8.25792L17.0782 16.6564C17.0493 16.7566 16.9954 16.8479 16.9217 16.9217C16.8479 16.9954 16.7566 17.0493 16.6564 17.0782L8.25792 19.4142C8.13058 19.4505 8.01856 19.5274 7.93881 19.6331C7.85906 19.7389 7.81592 19.8677 7.81592 20.0001C7.81592 20.1325 7.85906 20.2614 7.93881 20.3671C8.01856 20.4728 8.13058 20.5497 8.25792 20.586Z" stroke="#F9E955" stroke-linecap="round" stroke-linejoin="round"/>
</g>
</g>
<defs>
<filter id="filter0_b_384_397" x="-142.684" y="-142.684" width="325.368" height="325.368" filterUnits="userSpaceOnUse" color-interpolation-filters="sRGB">
<feFlood flood-opacity="0" result="BackgroundImageFix"/>
<feGaussianBlur in="BackgroundImageFix" stdDeviation="75"/>
<feComposite in2="SourceAlpha" operator="in" result="effect1_backgroundBlur_384_397"/>
<feBlend mode="normal" in="SourceGraphic" in2="effect1_backgroundBlur_384_397" result="shape"/>
</filter>
</defs>
</svg>
