<svg width="36" height="36" viewBox="0 0 36 36" fill="none" xmlns="http://www.w3.org/2000/svg">
<path d="M5.41497 2.72119L20.6895 18.0002L5.41647 33.2792C5.14534 33.1644 4.91401 32.9723 4.7513 32.7269C4.58859 32.4815 4.50171 32.1936 4.50147 31.8992V4.10269C4.50129 3.80817 4.58782 3.52011 4.75026 3.27444C4.91271 3.02876 5.14389 2.83635 5.41497 2.72119ZM21.75 19.0607L25.203 22.5137L8.79746 32.0132L21.75 19.0607ZM26.5485 14.2637L30.759 16.7027C30.9863 16.8345 31.175 17.0238 31.3061 17.2515C31.4373 17.4792 31.5063 17.7374 31.5063 18.0002C31.5063 18.263 31.4373 18.5211 31.3061 18.7489C31.175 18.9766 30.9863 19.1658 30.759 19.2977L26.547 21.7367L22.8105 18.0002L26.5485 14.2637ZM8.79746 3.98719L25.2045 13.4852L21.75 16.9397L8.79746 3.98719Z" fill="#F5F5F5"/>
</svg>
